<mxfile host="app.diagrams.net" modified="2023-02-03T02:15:15.773Z" agent="5.0 (Windows)" etag="hPQSFfQwmTVC0347nWCR" version="20.8.16" type="github">
  <diagram name="Page-1" id="hSadaufKAb4HdudWEFLX">
    <mxGraphModel dx="2284" dy="754" grid="1" gridSize="10" guides="1" tooltips="1" connect="1" arrows="1" fold="1" page="1" pageScale="1" pageWidth="850" pageHeight="1100" math="0" shadow="0">
      <root>
        <mxCell id="0" />
        <mxCell id="1" parent="0" />
        <mxCell id="dOjsNn2Fl8QuH95HzSxg-74" value="" style="group" vertex="1" connectable="0" parent="1">
          <mxGeometry x="-720" y="43" width="560" height="237" as="geometry" />
        </mxCell>
        <mxCell id="dOjsNn2Fl8QuH95HzSxg-72" value="" style="rounded=0;whiteSpace=wrap;html=1;fontSize=12;fillColor=#dae8fc;strokeColor=#6c8ebf;align=left;movable=1;resizable=1;rotatable=1;deletable=1;editable=1;connectable=1;" vertex="1" parent="dOjsNn2Fl8QuH95HzSxg-74">
          <mxGeometry width="560" height="237" as="geometry" />
        </mxCell>
        <mxCell id="dOjsNn2Fl8QuH95HzSxg-73" value="Covered In More Detail" style="text;html=1;strokeColor=none;fillColor=none;align=center;verticalAlign=middle;whiteSpace=wrap;rounded=0;fontSize=12;movable=1;resizable=1;rotatable=1;deletable=1;editable=1;connectable=1;" vertex="1" parent="dOjsNn2Fl8QuH95HzSxg-74">
          <mxGeometry x="10" y="7" width="140" height="30" as="geometry" />
        </mxCell>
        <mxCell id="dOjsNn2Fl8QuH95HzSxg-60" style="edgeStyle=orthogonalEdgeStyle;rounded=0;orthogonalLoop=1;jettySize=auto;html=1;exitX=0.5;exitY=1;exitDx=0;exitDy=0;entryX=0.5;entryY=0;entryDx=0;entryDy=0;fontSize=12;" edge="1" parent="1" source="kgQVGphqANJYqqKDK3Mq-1" target="dOjsNn2Fl8QuH95HzSxg-1">
          <mxGeometry relative="1" as="geometry" />
        </mxCell>
        <mxCell id="kgQVGphqANJYqqKDK3Mq-1" value="Physics 30S" style="rounded=1;whiteSpace=wrap;html=1;fillColor=#ffe6cc;strokeColor=#d79b00;" parent="1" vertex="1">
          <mxGeometry x="40" y="50" width="120" height="60" as="geometry" />
        </mxCell>
        <mxCell id="dOjsNn2Fl8QuH95HzSxg-1" value="Physics 40S" style="rounded=1;whiteSpace=wrap;html=1;fillColor=#f8cecc;strokeColor=#b85450;" vertex="1" parent="1">
          <mxGeometry x="40" y="150" width="120" height="60" as="geometry" />
        </mxCell>
        <mxCell id="dOjsNn2Fl8QuH95HzSxg-3" value="" style="rounded=1;whiteSpace=wrap;html=1;fillColor=#dae8fc;strokeColor=#6c8ebf;" vertex="1" parent="1">
          <mxGeometry x="110" y="310" width="120" height="60" as="geometry" />
        </mxCell>
        <mxCell id="dOjsNn2Fl8QuH95HzSxg-5" value="High School Courses" style="text;html=1;strokeColor=none;fillColor=none;align=center;verticalAlign=middle;whiteSpace=wrap;rounded=0;movable=0;resizable=0;rotatable=0;deletable=0;editable=0;connectable=0;" vertex="1" parent="1">
          <mxGeometry width="140" height="30" as="geometry" />
        </mxCell>
        <mxCell id="dOjsNn2Fl8QuH95HzSxg-6" value="University Courses" style="text;html=1;strokeColor=none;fillColor=none;align=center;verticalAlign=middle;whiteSpace=wrap;rounded=0;movable=0;resizable=0;rotatable=0;deletable=0;editable=0;connectable=0;" vertex="1" parent="1">
          <mxGeometry y="240" width="130" height="30" as="geometry" />
        </mxCell>
        <mxCell id="dOjsNn2Fl8QuH95HzSxg-7" value="" style="endArrow=none;html=1;rounded=0;movable=0;resizable=0;rotatable=0;deletable=0;editable=0;connectable=0;" edge="1" parent="1">
          <mxGeometry width="50" height="50" relative="1" as="geometry">
            <mxPoint y="240" as="sourcePoint" />
            <mxPoint x="840" y="240" as="targetPoint" />
          </mxGeometry>
        </mxCell>
        <mxCell id="dOjsNn2Fl8QuH95HzSxg-12" value="" style="endArrow=none;html=1;rounded=0;" edge="1" parent="1">
          <mxGeometry width="50" height="50" relative="1" as="geometry">
            <mxPoint y="1076" as="sourcePoint" />
            <mxPoint as="targetPoint" />
          </mxGeometry>
        </mxCell>
        <mxCell id="dOjsNn2Fl8QuH95HzSxg-13" value="&lt;div style=&quot;font-size: 16px;&quot;&gt;&lt;font style=&quot;font-size: 16px;&quot;&gt;Course Selection Overview&lt;/font&gt;&lt;/div&gt;" style="text;html=1;strokeColor=none;fillColor=none;align=center;verticalAlign=middle;whiteSpace=wrap;rounded=0;movable=0;resizable=0;rotatable=0;deletable=0;editable=0;connectable=0;" vertex="1" parent="1">
          <mxGeometry x="-240" width="240" height="30" as="geometry" />
        </mxCell>
        <mxCell id="dOjsNn2Fl8QuH95HzSxg-48" style="edgeStyle=orthogonalEdgeStyle;rounded=0;orthogonalLoop=1;jettySize=auto;html=1;exitX=0.5;exitY=1;exitDx=0;exitDy=0;fontSize=12;entryX=0.5;entryY=0;entryDx=0;entryDy=0;" edge="1" parent="1" source="dOjsNn2Fl8QuH95HzSxg-18" target="dOjsNn2Fl8QuH95HzSxg-71">
          <mxGeometry relative="1" as="geometry">
            <mxPoint x="-380" y="153" as="targetPoint" />
          </mxGeometry>
        </mxCell>
        <mxCell id="dOjsNn2Fl8QuH95HzSxg-18" value="&lt;div&gt;Grade 12&lt;/div&gt;" style="rounded=0;whiteSpace=wrap;html=1;fillColor=#d5e8d4;strokeColor=#82b366;" vertex="1" parent="1">
          <mxGeometry x="-500" y="73" width="120" height="60" as="geometry" />
        </mxCell>
        <mxCell id="dOjsNn2Fl8QuH95HzSxg-53" value="" style="edgeStyle=orthogonalEdgeStyle;rounded=0;orthogonalLoop=1;jettySize=auto;html=1;fontSize=12;" edge="1" parent="1" source="dOjsNn2Fl8QuH95HzSxg-20" target="dOjsNn2Fl8QuH95HzSxg-52">
          <mxGeometry relative="1" as="geometry" />
        </mxCell>
        <mxCell id="dOjsNn2Fl8QuH95HzSxg-20" value="&lt;div&gt;Computer Science&lt;/div&gt;&lt;div&gt;Second Year&lt;br&gt;&lt;/div&gt;" style="rounded=0;whiteSpace=wrap;html=1;fillColor=#ffe6cc;strokeColor=#d79b00;" vertex="1" parent="1">
          <mxGeometry x="-710" y="320" width="140" height="60" as="geometry" />
        </mxCell>
        <mxCell id="dOjsNn2Fl8QuH95HzSxg-57" value="" style="edgeStyle=orthogonalEdgeStyle;rounded=0;orthogonalLoop=1;jettySize=auto;html=1;fontSize=12;" edge="1" parent="1" source="dOjsNn2Fl8QuH95HzSxg-22" target="dOjsNn2Fl8QuH95HzSxg-56">
          <mxGeometry relative="1" as="geometry" />
        </mxCell>
        <mxCell id="dOjsNn2Fl8QuH95HzSxg-22" value="&lt;div&gt;Computer Engineering&lt;/div&gt;&lt;div&gt;Second Year&lt;br&gt;&lt;/div&gt;" style="rounded=0;whiteSpace=wrap;html=1;fillColor=#ffe6cc;strokeColor=#d79b00;" vertex="1" parent="1">
          <mxGeometry x="-310" y="320" width="140" height="60" as="geometry" />
        </mxCell>
        <mxCell id="dOjsNn2Fl8QuH95HzSxg-33" value="" style="endArrow=none;dashed=1;html=1;dashPattern=1 3;strokeWidth=2;rounded=0;movable=0;resizable=0;rotatable=0;deletable=0;editable=0;connectable=0;" edge="1" parent="1">
          <mxGeometry width="50" height="50" relative="1" as="geometry">
            <mxPoint y="161" as="sourcePoint" />
            <mxPoint x="-840" y="161" as="targetPoint" />
          </mxGeometry>
        </mxCell>
        <mxCell id="dOjsNn2Fl8QuH95HzSxg-39" value="University" style="text;html=1;strokeColor=none;fillColor=none;align=center;verticalAlign=middle;whiteSpace=wrap;rounded=0;movable=0;resizable=0;rotatable=0;deletable=0;editable=0;connectable=0;" vertex="1" parent="1">
          <mxGeometry x="-80" y="161" width="80" height="30" as="geometry" />
        </mxCell>
        <mxCell id="dOjsNn2Fl8QuH95HzSxg-41" value="High School" style="text;html=1;strokeColor=none;fillColor=none;align=center;verticalAlign=middle;whiteSpace=wrap;rounded=0;fontSize=12;movable=0;resizable=0;rotatable=0;deletable=0;editable=0;connectable=0;" vertex="1" parent="1">
          <mxGeometry x="-100" y="20" width="100" height="30" as="geometry" />
        </mxCell>
        <mxCell id="dOjsNn2Fl8QuH95HzSxg-49" style="edgeStyle=orthogonalEdgeStyle;rounded=0;orthogonalLoop=1;jettySize=auto;html=1;fontSize=12;exitX=0;exitY=0.75;exitDx=0;exitDy=0;" edge="1" parent="1" source="dOjsNn2Fl8QuH95HzSxg-71" target="dOjsNn2Fl8QuH95HzSxg-20">
          <mxGeometry relative="1" as="geometry">
            <mxPoint x="-530" y="244" as="sourcePoint" />
          </mxGeometry>
        </mxCell>
        <mxCell id="dOjsNn2Fl8QuH95HzSxg-50" style="edgeStyle=orthogonalEdgeStyle;rounded=0;orthogonalLoop=1;jettySize=auto;html=1;entryX=0.5;entryY=0;entryDx=0;entryDy=0;fontSize=12;exitX=1;exitY=0.75;exitDx=0;exitDy=0;" edge="1" parent="1" source="dOjsNn2Fl8QuH95HzSxg-71" target="dOjsNn2Fl8QuH95HzSxg-22">
          <mxGeometry relative="1" as="geometry">
            <mxPoint x="-350" y="244" as="sourcePoint" />
          </mxGeometry>
        </mxCell>
        <mxCell id="dOjsNn2Fl8QuH95HzSxg-55" value="" style="edgeStyle=orthogonalEdgeStyle;rounded=0;orthogonalLoop=1;jettySize=auto;html=1;fontSize=12;" edge="1" parent="1" source="dOjsNn2Fl8QuH95HzSxg-52" target="dOjsNn2Fl8QuH95HzSxg-54">
          <mxGeometry relative="1" as="geometry" />
        </mxCell>
        <mxCell id="dOjsNn2Fl8QuH95HzSxg-52" value="&lt;div&gt;Computer Science&lt;/div&gt;&lt;div&gt;Third Year&lt;/div&gt;" style="whiteSpace=wrap;html=1;fillColor=#ffe6cc;strokeColor=#d79b00;rounded=0;" vertex="1" parent="1">
          <mxGeometry x="-710" y="460" width="140" height="60" as="geometry" />
        </mxCell>
        <mxCell id="dOjsNn2Fl8QuH95HzSxg-69" style="edgeStyle=orthogonalEdgeStyle;rounded=0;orthogonalLoop=1;jettySize=auto;html=1;exitX=0.5;exitY=1;exitDx=0;exitDy=0;entryX=0;entryY=0.5;entryDx=0;entryDy=0;fontSize=12;" edge="1" parent="1" source="dOjsNn2Fl8QuH95HzSxg-54" target="dOjsNn2Fl8QuH95HzSxg-67">
          <mxGeometry relative="1" as="geometry" />
        </mxCell>
        <mxCell id="dOjsNn2Fl8QuH95HzSxg-54" value="&lt;div&gt;Computer Science&lt;/div&gt;&lt;div&gt;Fourth Year&lt;br&gt;&lt;/div&gt;" style="whiteSpace=wrap;html=1;fillColor=#ffe6cc;strokeColor=#d79b00;rounded=0;" vertex="1" parent="1">
          <mxGeometry x="-710" y="600" width="140" height="60" as="geometry" />
        </mxCell>
        <mxCell id="dOjsNn2Fl8QuH95HzSxg-59" value="" style="edgeStyle=orthogonalEdgeStyle;rounded=0;orthogonalLoop=1;jettySize=auto;html=1;fontSize=12;entryX=0.5;entryY=0;entryDx=0;entryDy=0;" edge="1" parent="1" source="dOjsNn2Fl8QuH95HzSxg-56" target="dOjsNn2Fl8QuH95HzSxg-65">
          <mxGeometry relative="1" as="geometry">
            <mxPoint x="-240" y="595" as="targetPoint" />
          </mxGeometry>
        </mxCell>
        <mxCell id="dOjsNn2Fl8QuH95HzSxg-56" value="Computer Engineering&lt;br&gt;&lt;div&gt;Third Year&lt;/div&gt;" style="whiteSpace=wrap;html=1;fillColor=#ffe6cc;strokeColor=#d79b00;rounded=0;fontStyle=0" vertex="1" parent="1">
          <mxGeometry x="-310" y="460" width="140" height="60" as="geometry" />
        </mxCell>
        <mxCell id="dOjsNn2Fl8QuH95HzSxg-62" value="&lt;h1&gt;University 1&lt;br&gt;&lt;/h1&gt;&lt;p&gt;University 1 is a program offered by the University of Manitoba, it allows you to choose your major in your second year, so long as you meet the course requirements.&lt;br&gt;&lt;/p&gt;" style="text;html=1;strokeColor=none;fillColor=none;spacing=5;spacingTop=-20;whiteSpace=wrap;overflow=hidden;rounded=0;fontSize=12;align=left;horizontal=1;verticalAlign=middle;" vertex="1" parent="1">
          <mxGeometry x="-535" y="326" width="190" height="150" as="geometry" />
        </mxCell>
        <mxCell id="dOjsNn2Fl8QuH95HzSxg-63" value="&lt;h1&gt;Which way?&lt;br&gt;&lt;/h1&gt;&lt;p&gt;It&#39;s most likely that I will go the Computer Engineering route displayed here. I am still considering Computer Science, it depends how many courses both path&#39;s first-year programs share.&lt;br&gt;&lt;/p&gt;" style="text;html=1;strokeColor=none;fillColor=none;spacing=5;spacingTop=-20;whiteSpace=wrap;overflow=hidden;rounded=0;fontSize=12;" vertex="1" parent="1">
          <mxGeometry x="-535" y="521" width="190" height="160" as="geometry" />
        </mxCell>
        <mxCell id="dOjsNn2Fl8QuH95HzSxg-70" style="edgeStyle=orthogonalEdgeStyle;rounded=0;orthogonalLoop=1;jettySize=auto;html=1;exitX=0.5;exitY=1;exitDx=0;exitDy=0;entryX=1;entryY=0.5;entryDx=0;entryDy=0;fontSize=12;" edge="1" parent="1" source="dOjsNn2Fl8QuH95HzSxg-65" target="dOjsNn2Fl8QuH95HzSxg-67">
          <mxGeometry relative="1" as="geometry" />
        </mxCell>
        <mxCell id="dOjsNn2Fl8QuH95HzSxg-65" value="Computer Engineering&lt;br&gt;&lt;div&gt;Fourth Year&lt;/div&gt;" style="whiteSpace=wrap;html=1;fillColor=#ffe6cc;strokeColor=#d79b00;rounded=0;fontStyle=0" vertex="1" parent="1">
          <mxGeometry x="-310" y="600" width="140" height="60" as="geometry" />
        </mxCell>
        <mxCell id="dOjsNn2Fl8QuH95HzSxg-67" value="Bachelors Degree" style="whiteSpace=wrap;html=1;fillColor=#fff2cc;strokeColor=#d6b656;rounded=0;fontStyle=0;" vertex="1" parent="1">
          <mxGeometry x="-500" y="720" width="120" height="60" as="geometry" />
        </mxCell>
        <mxCell id="dOjsNn2Fl8QuH95HzSxg-71" value="&lt;div&gt;University 1&lt;/div&gt;&lt;div&gt;First Year&lt;br&gt;&lt;/div&gt;" style="rounded=0;whiteSpace=wrap;html=1;fontSize=12;fillColor=#ffe6cc;strokeColor=#d79b00;" vertex="1" parent="1">
          <mxGeometry x="-500" y="180" width="120" height="60" as="geometry" />
        </mxCell>
      </root>
    </mxGraphModel>
  </diagram>
</mxfile>
